<svg width="21" height="18" viewBox="0 0 21 18" fill="none" xmlns="http://www.w3.org/2000/svg">
<path d="M20.25 16.125C20.25 16.4234 20.1315 16.7095 19.9205 16.9205C19.7095 17.1315 19.4234 17.25 19.125 17.25H1.125C0.826631 17.25 0.540483 17.1315 0.329505 16.9205C0.118526 16.7095 0 16.4234 0 16.125V1.125C0 0.826631 0.118526 0.540483 0.329505 0.329505C0.540483 0.118526 0.826631 0 1.125 0C1.42337 0 1.70952 0.118526 1.9205 0.329505C2.13147 0.540483 2.25 0.826631 2.25 1.125V9.14531L6.38437 5.53125C6.57847 5.36143 6.82501 5.26346 7.08272 5.25373C7.34043 5.244 7.59366 5.32311 7.8 5.47781L13.0706 9.43031L18.3844 4.78125C18.4932 4.6726 18.6232 4.58742 18.7663 4.53098C18.9094 4.47454 19.0625 4.44804 19.2162 4.45311C19.3699 4.45818 19.521 4.49471 19.66 4.56046C19.7991 4.6262 19.9231 4.71976 20.0246 4.83535C20.1261 4.95094 20.2027 5.0861 20.2499 5.2325C20.2971 5.37889 20.3137 5.5334 20.2988 5.68648C20.2839 5.83956 20.2378 5.98795 20.1633 6.1225C20.0888 6.25705 19.9875 6.3749 19.8656 6.46875L13.8656 11.7188C13.6715 11.8886 13.425 11.9865 13.1673 11.9963C12.9096 12.006 12.6563 11.9269 12.45 11.7722L7.17938 7.8225L2.25 12.1359V15H19.125C19.4234 15 19.7095 15.1185 19.9205 15.3295C20.1315 15.5405 20.25 15.8266 20.25 16.125Z" fill="#3A3A3A" fill-opacity="0.7"/>
</svg>
