<svg width="95" height="36" viewBox="0 0 95 36" fill="none" xmlns="http://www.w3.org/2000/svg">
<path d="M28.6005 11.3776C27.2666 8.94725 25.2033 7.00039 22.7126 5.82219C20.2219 4.64399 17.4348 4.29636 14.7596 4.83022C12.0844 5.36407 9.66162 6.75137 7.84615 8.78889C6.03068 10.8264 4.91793 13.4071 4.67088 16.1529C4.42384 18.8987 5.05549 21.6654 6.47331 24.0477C7.89114 26.4299 10.0206 28.3026 12.5499 29.3914C15.0791 30.4802 17.8751 30.7278 20.5285 30.0981C23.1818 29.4684 25.553 27.9944 27.2947 25.892L17.4225 17.5125L28.6005 11.3776Z" fill="url(#paint0_linear_3_3606)"/>
<path d="M37.222 25.5126V9.66701H43.8998C45.59 9.66701 47.0765 9.99901 48.3592 10.663C49.657 11.327 50.6606 12.2551 51.3699 13.4473C52.0942 14.6395 52.4564 16.0203 52.4564 17.5898C52.4564 19.1593 52.0942 20.5401 51.3699 21.7323C50.6606 22.9245 49.657 23.8526 48.3592 24.5166C47.0765 25.1806 45.59 25.5126 43.8998 25.5126H37.222ZM39.4857 23.5432H43.764C45.0769 23.5432 46.2087 23.2942 47.1595 22.7962C48.1253 22.2982 48.8723 21.604 49.4005 20.7136C49.9287 19.8082 50.1928 18.7669 50.1928 17.5898C50.1928 16.3976 49.9287 15.3563 49.4005 14.466C48.8723 13.5756 48.1253 12.8814 47.1595 12.3834C46.2087 11.8854 45.0769 11.6364 43.764 11.6364H39.4857V23.5432ZM55.9237 25.5126V9.66701H58.1874V25.5126H55.9237ZM60.5318 25.5126L67.7076 9.66701H69.9486L77.147 25.5126H74.7702L68.3641 10.9347H69.2695L62.8634 25.5126H60.5318ZM63.5878 21.5512L64.1989 19.7403H73.1177L73.7742 21.5512H63.5878ZM86.4429 25.6937C85.2205 25.6937 84.0962 25.4975 83.07 25.1051C82.0438 24.6977 81.1535 24.1317 80.3989 23.4074C79.6444 22.6679 79.0558 21.8077 78.6333 20.8268C78.2107 19.8459 77.9994 18.7669 77.9994 17.5898C77.9994 16.4127 78.2107 15.3337 78.6333 14.3528C79.0558 13.3719 79.6444 12.5192 80.3989 11.7948C81.1685 11.0554 82.0665 10.4895 83.0926 10.0971C84.1188 9.68965 85.2507 9.48592 86.4881 9.48592C87.7407 9.48592 88.8876 9.68965 89.9289 10.0971C90.9702 10.5046 91.853 11.1157 92.5773 11.9307L91.1739 13.3341C90.525 12.7003 89.8157 12.24 89.0461 11.9533C88.2915 11.6515 87.469 11.5006 86.5787 11.5006C85.6732 11.5006 84.8281 11.6515 84.0434 11.9533C83.2737 12.2551 82.6022 12.6777 82.0287 13.2209C81.4704 13.7642 81.0327 14.4131 80.7158 15.1677C80.414 15.9071 80.2631 16.7145 80.2631 17.5898C80.2631 18.45 80.414 19.2573 80.7158 20.0119C81.0327 20.7514 81.4704 21.4003 82.0287 21.9586C82.6022 22.5019 83.2737 22.9245 84.0434 23.2263C84.813 23.5281 85.6506 23.679 86.556 23.679C87.4011 23.679 88.2085 23.5507 88.9781 23.2942C89.7629 23.0226 90.4872 22.5774 91.1512 21.9586L92.4415 23.679C91.6568 24.343 90.7362 24.8486 89.6799 25.1957C88.6386 25.5277 87.5596 25.6937 86.4429 25.6937ZM90.2684 23.3847V17.4992H92.4415V23.679L90.2684 23.3847Z" fill="#3A3A3A" fill-opacity="0.8"/>
<defs>
<linearGradient id="paint0_linear_3_3606" x1="11.178" y1="6.13494" x2="21.8281" y2="31.3937" gradientUnits="userSpaceOnUse">
<stop stop-color="#4F46E5" stop-opacity="0.9"/>
<stop offset="0.5625" stop-color="#38BDF8"/>
<stop offset="1" stop-color="#38BDF8" stop-opacity="0.9"/>
</linearGradient>
</defs>
</svg>
