<svg width="18" height="19" viewBox="0 0 18 19" fill="none" xmlns="http://www.w3.org/2000/svg">
<path d="M18 9.00024V18.0002C18 18.1992 17.921 18.3899 17.7803 18.5306C17.6397 18.6712 17.4489 18.7502 17.25 18.7502H0.750009C0.551097 18.7502 0.360332 18.6712 0.219679 18.5306C0.0790272 18.3899 9.42514e-06 18.1992 9.42514e-06 18.0002V9.00024C-0.00069249 8.80304 0.0378174 8.60766 0.1133 8.42547C0.188783 8.24328 0.299732 8.07792 0.439697 7.93899L7.9397 0.438992C8.22097 0.1579 8.60236 0 9.00001 0C9.39766 0 9.77905 0.1579 10.0603 0.438992L17.5603 7.93899C17.7003 8.07792 17.8112 8.24328 17.8867 8.42547C17.9622 8.60766 18.0007 8.80304 18 9.00024Z" fill="#4F46E5"/>
</svg>
