<svg width="22" height="22" viewBox="0 0 22 22" fill="none" xmlns="http://www.w3.org/2000/svg">
<path d="M21.422 0.330887C21.3174 0.226007 21.1932 0.142791 21.0565 0.0860096C20.9198 0.0292285 20.7731 0 20.6251 0C20.477 0 20.3304 0.0292285 20.1937 0.0860096C20.0569 0.142791 19.9327 0.226007 19.8282 0.330887L15.1829 4.97901L14.9448 4.73995C14.3112 4.10821 13.453 3.75345 12.5584 3.75345C11.6637 3.75345 10.8055 4.10821 10.172 4.73995L8.25101 6.65807L7.92195 6.32807C7.8173 6.22343 7.69307 6.14042 7.55634 6.08378C7.41961 6.02715 7.27307 5.998 7.12508 5.998C6.82619 5.998 6.53955 6.11673 6.3282 6.32807C6.22355 6.43272 6.14054 6.55696 6.08391 6.69368C6.02728 6.83041 5.99813 6.97696 5.99813 7.12495C5.99813 7.42384 6.11686 7.71048 6.3282 7.92182L6.65726 8.25182L4.73914 10.1728C4.10625 10.8057 3.7507 11.6641 3.7507 12.5592C3.7507 13.4542 4.10625 14.3126 4.73914 14.9456L4.9782 15.1837L0.330076 19.8309C0.118732 20.0422 0 20.3289 0 20.6278C0 20.9266 0.118732 21.2133 0.330076 21.4246C0.541421 21.636 0.828065 21.7547 1.12695 21.7547C1.42584 21.7547 1.71248 21.636 1.92383 21.4246L6.57101 16.7765L6.80914 17.0156C7.4428 17.6471 8.30093 18.0017 9.19555 18.0017C10.0902 18.0017 10.9483 17.6471 11.582 17.0156L13.501 15.0956L13.8301 15.4256C14.0414 15.6369 14.3281 15.7557 14.627 15.7557C14.9258 15.7557 15.2125 15.6369 15.4238 15.4256C15.6352 15.2142 15.7539 14.9276 15.7539 14.6287C15.7539 14.3298 15.6352 14.0432 15.4238 13.8318L15.0948 13.5018L17.0157 11.5809C17.6486 10.948 18.0041 10.0895 18.0041 9.19448C18.0041 8.29941 17.6486 7.441 17.0157 6.80807L16.7766 6.56995L21.4248 1.92276C21.5292 1.8181 21.6119 1.69387 21.6683 1.5572C21.7247 1.42053 21.7536 1.27408 21.7533 1.12624C21.753 0.978399 21.7236 0.832058 21.6668 0.695585C21.6099 0.559112 21.5267 0.435184 21.422 0.330887ZM9.98914 15.4246C9.88462 15.5295 9.76043 15.6127 9.62368 15.6695C9.48694 15.7263 9.34033 15.7555 9.19226 15.7555C9.0442 15.7555 8.89759 15.7263 8.76084 15.6695C8.6241 15.6127 8.49991 15.5295 8.39539 15.4246L6.33008 13.3546C6.2252 13.2501 6.14198 13.1259 6.0852 12.9892C6.02842 12.8524 5.99919 12.7058 5.99919 12.5578C5.99919 12.4097 6.02842 12.2631 6.0852 12.1263C6.14198 11.9896 6.2252 11.8654 6.33008 11.7609L8.25101 9.84557L11.9073 13.5018L9.98914 15.4246ZM15.4266 9.99182L13.501 11.9081L9.84476 8.25182L11.7657 6.33089C11.8702 6.22601 11.9944 6.14279 12.1312 6.08601C12.2679 6.02923 12.4145 6 12.5626 6C12.7106 6 12.8573 6.02923 12.994 6.08601C13.1307 6.14279 13.2549 6.22601 13.3595 6.33089L15.4276 8.39901C15.5325 8.50353 15.6157 8.62772 15.6725 8.76447C15.7292 8.90121 15.7585 9.04782 15.7585 9.19589C15.7585 9.34395 15.7292 9.49056 15.6725 9.62731C15.6157 9.76405 15.5325 9.88825 15.4276 9.99276L15.4266 9.99182ZM6.87008 2.00526C6.74165 1.73908 6.72312 1.43305 6.81851 1.15332C6.91389 0.873584 7.11552 0.642622 7.37982 0.510351C7.64411 0.37808 7.94984 0.355125 8.23093 0.446447C8.51201 0.53777 8.74587 0.736035 8.88195 0.998387L9.63195 2.49839C9.70061 2.63075 9.74227 2.77544 9.75451 2.92404C9.76675 3.07265 9.74933 3.2222 9.70325 3.36401C9.65718 3.50583 9.58337 3.63706 9.48613 3.7501C9.38888 3.86313 9.27014 3.9557 9.1368 4.02244C9.00346 4.08917 8.85818 4.12873 8.70941 4.13882C8.56064 4.1489 8.41136 4.12932 8.27023 4.08119C8.1291 4.03307 7.99894 3.95737 7.88733 3.8585C7.77572 3.75963 7.68487 3.63956 7.62008 3.50526L6.87008 2.00526ZM0.495077 7.37339C0.62862 7.10662 0.862655 6.90382 1.14571 6.80958C1.42876 6.71535 1.73765 6.7374 2.00445 6.87089L3.50445 7.62089C3.63875 7.68568 3.75882 7.77653 3.85769 7.88814C3.95656 7.99975 4.03226 8.12991 4.08038 8.27104C4.12851 8.41217 4.14809 8.56145 4.13801 8.71022C4.12792 8.85899 4.08836 9.00426 4.02163 9.13761C3.95489 9.27095 3.86232 9.38969 3.74929 9.48694C3.63625 9.58418 3.50501 9.65799 3.3632 9.70406C3.22139 9.75014 3.07184 9.76756 2.92323 9.75532C2.77463 9.74308 2.62994 9.70142 2.49758 9.63276L0.997576 8.88276C0.730808 8.74922 0.528005 8.51518 0.433771 8.23213C0.339537 7.94908 0.361589 7.64018 0.495077 7.37339ZM21.257 14.3803C21.1234 14.647 20.8894 14.8498 20.6063 14.9441C20.3233 15.0383 20.0144 15.0162 19.7476 14.8828L18.2476 14.1328C17.9852 13.9967 17.787 13.7628 17.6956 13.4817C17.6043 13.2007 17.6273 12.8949 17.7595 12.6306C17.8918 12.3663 18.1228 12.1647 18.4025 12.0693C18.6822 11.9739 18.9883 11.9925 19.2545 12.1209L20.7545 12.8709C21.0212 13.0044 21.224 13.2385 21.3183 13.5215C21.4125 13.8046 21.3904 14.1135 21.257 14.3803ZM14.882 19.7484C14.9506 19.8807 14.9923 20.0254 15.0045 20.174C15.0167 20.3226 14.9993 20.4722 14.9533 20.614C14.9072 20.7558 14.8334 20.8871 14.7361 21.0001C14.6389 21.1131 14.5201 21.2057 14.3868 21.2724C14.2535 21.3392 14.1082 21.3787 13.9594 21.3888C13.8106 21.3989 13.6614 21.3793 13.5202 21.3312C13.3791 21.2831 13.2489 21.2074 13.1373 21.1085C13.0257 21.0096 12.9349 20.8896 12.8701 20.7553L12.1201 19.2553C11.9916 18.9891 11.9731 18.683 12.0685 18.4033C12.1639 18.1236 12.3655 17.8926 12.6298 17.7604C12.8941 17.6281 13.1998 17.6051 13.4809 17.6964C13.762 17.7878 13.9959 17.986 14.132 18.2484L14.882 19.7484Z" fill="#3A3A3A" fill-opacity="0.7"/>
</svg>
